<svg xmlns="http://www.w3.org/2000/svg" xmlns:xlink="http://www.w3.org/1999/xlink" clip-rule="evenodd" fill-rule="evenodd" preserveAspectRatio="xMidYMid meet" stroke-linejoin="round" stroke-miterlimit="1.414" version="1.0" viewBox="44.1 92.1 427.5 329.2" zoomAndPan="magnify" style="fill: rgb(210, 210, 210);" original_string_length="2414"><g id="__id15_st350125ta"><path d="M247.322,270.229l-52.194,52.194c-1.604,1.485 -2.222,1.708 -3.384,2.101c-5.236,1.768 -11.643,-2.693 -11.532,-8.447c0.042,-2.232 1.026,-4.358 2.557,-6.012l59.67,-59.669c3.537,-3.499 8.381,-5.532 13.379,-5.631c0.243,-0.002 0.242,-0.002 0.485,0c4.966,0.098 9.833,2.123 13.379,5.631l59.67,59.669c1.485,1.604 1.707,2.221 2.1,3.384c1.77,5.242 -2.649,11.643 -8.447,11.532c-2.232,-0.042 -4.358,-1.026 -6.012,-2.558l-52.194,-52.194l0,141.091c-0.097,2.355 -0.423,2.995 -1.053,4.159c-2.516,4.648 -9.676,5.886 -13.604,2.27c-1.773,-1.633 -2.72,-4 -2.82,-6.429l0,-141.091Zm-40.43,102.41l-82.352,0c-38.933,-0.127 -75.761,-32.016 -78.395,-73.533c-2.027,-31.957 17.309,-64.277 47.392,-77.232c7.303,-3.146 15.105,-5.144 22.998,-5.965l0.245,-0.024c0.061,-0.515 0.125,-1.03 0.19,-1.544c6.609,-50.722 43.527,-97.501 93.763,-114.692c14.415,-4.933 29.679,-7.426 44.892,-7.5c0.29,0 0.581,0 0.871,0c42.756,0.206 84.958,21.128 110.969,55.082c15.143,19.766 24.836,43.584 27.843,68.376c0,0 -1.341,0.101 1.758,0.467c30.95,3.828 58.576,27.258 66.593,58.374c7.934,30.796 -4.732,65.729 -31.385,84.224c-12.993,9.017 -28.733,13.915 -44.693,13.967l-82.352,0c-2.36,-0.374 -3.129,-0.21 -5.136,-1.669c-4.485,-3.258 -4.552,-10.832 0,-14.139c2.007,-1.459 2.776,-1.295 5.136,-1.669l82.324,0c30.623,-0.1 59.595,-25.712 61.044,-58.334c0.847,-19.086 -7.861,-38.354 -22.756,-50.358c-10.715,-8.635 -24.25,-13.444 -38.28,-13.489c0,0 -1.689,-0.038 -2.826,-0.39c-5.841,-1.807 -6.096,-9.946 -7.015,-16.755c-5.729,-42.446 -35.297,-80.886 -75.568,-97.253c-35.49,-14.423 -77.807,-10.977 -110.664,9.4c-33.174,20.573 -55.48,57.315 -57.963,96.808l-0.558,2.569c-1.334,2.353 -3.076,4.456 -5.581,5.231c-2.351,0.727 -4.752,0.372 -7.15,0.539c-21.618,1.509 -41.891,15.502 -51.067,35.143c-7.785,16.663 -7.466,36.866 0.809,53.262c10.135,20.081 32.145,33.554 54.59,33.627l82.324,0c2.36,0.374 3.129,0.21 5.136,1.669c4.406,3.201 4.524,10.852 0,14.139c-2.007,1.459 -2.776,1.295 -5.136,1.669Z" style="fill: inherit;"/></g></svg>